<?xml version="1.0" encoding="UTF-8"?>
<svg id="Layer_1" data-name="Layer 1" xmlns="http://www.w3.org/2000/svg" viewBox="0 0 873.32 143.47">
  <defs>
    <style>
      .cls-1 {
        fill: #a9adc1;
      }

      .cls-2 {
        fill: #20c4cb;
      }

      .cls-3 {
        fill: #282828;
      }
    </style>
  </defs>
  <path class="cls-3" d="m378.83,65.43c-.82,0-1.65-.31-2.28-.94l-33-32.65c-1.27-1.26-1.29-3.31-.03-4.58,1.26-1.27,3.31-1.28,4.59-.03l33,32.65c1.27,1.26,1.29,3.31.03,4.59-.63.64-1.47.96-2.31.96Z"/>
  <path class="cls-3" d="m378.83,65.43c-.84,0-1.67-.32-2.31-.96-1.26-1.27-1.25-3.33.02-4.59l33-32.65c1.27-1.26,3.33-1.25,4.58.03,1.26,1.27,1.25,3.32-.02,4.58l-33,32.65c-.63.63-1.45.94-2.28.94Z"/>
  <path class="cls-3" d="m411.83,98.78c-1.79,0-3.24-1.45-3.24-3.24V29.53c0-1.79,1.45-3.24,3.24-3.24s3.24,1.45,3.24,3.24v66c0,1.79-1.45,3.24-3.24,3.24Z"/>
  <path class="cls-1" d="m560.75,125.07c-1.79,0-3.24-1.45-3.24-3.24V3.24c0-1.79,1.45-3.24,3.24-3.24s3.24,1.45,3.24,3.24v118.58c0,1.79-1.45,3.24-3.24,3.24Z"/>
  <path class="cls-3" d="m196.69,98.78c-1.79,0-3.24-1.45-3.24-3.24V29.53c0-1.79,1.45-3.24,3.24-3.24s3.24,1.45,3.24,3.24v66c0,1.79-1.45,3.24-3.24,3.24Z"/>
  <path class="cls-3" d="m252.89,122c-1.89,0-3.41-1.53-3.41-3.41v-24.36c0-1.89,1.53-3.42,3.41-3.42s3.41,1.53,3.41,3.42v24.36c0,1.88-1.53,3.41-3.41,3.41Z"/>
  <path class="cls-3" d="m345.83,98.78c-1.79,0-3.24-1.45-3.24-3.24V29.53c0-1.79,1.45-3.24,3.24-3.24s3.24,1.45,3.24,3.24v66c0,1.79-1.45,3.24-3.24,3.24Z"/>
  <path class="cls-3" d="m52.96,98.77H3.24c-1.79,0-3.24-1.45-3.24-3.24s1.45-3.24,3.24-3.24h49.71c1.79,0,3.24,1.45,3.24,3.24s-1.45,3.24-3.24,3.24Z"/>
  <path class="cls-3" d="m44.62,65.78H3.24c-1.79,0-3.24-1.45-3.24-3.24s1.45-3.24,3.24-3.24h41.38c1.79,0,3.24,1.45,3.24,3.24s-1.45,3.24-3.24,3.24Z"/>
  <path class="cls-3" d="m52.96,32.78H3.24c-1.79,0-3.24-1.45-3.24-3.24s1.45-3.24,3.24-3.24h49.71c1.79,0,3.24,1.45,3.24,3.24s-1.45,3.24-3.24,3.24Z"/>
  <path class="cls-3" d="m95.33,98.78c-1.79,0-3.24-1.45-3.24-3.24V29.53c0-1.79,1.45-3.24,3.24-3.24s3.24,1.45,3.24,3.24v66c0,1.79-1.46,3.24-3.24,3.24Z"/>
  <path class="cls-3" d="m3.24,98.78c-1.79,0-3.24-1.45-3.24-3.24V29.53c0-1.79,1.45-3.24,3.24-3.24s3.24,1.45,3.24,3.24v66c0,1.79-1.45,3.24-3.24,3.24Z"/>
  <path class="cls-3" d="m145.05,98.72c-1.79,0-3.24-1.45-3.24-3.24V29.53c0-1.79,1.45-3.24,3.24-3.24s3.24,1.45,3.24,3.24v65.94c0,1.79-1.45,3.24-3.24,3.24Z"/>
  <path class="cls-3" d="m145.05,98.72c-.98,0-1.96-.45-2.59-1.29L92.75,31.49c-1.08-1.43-.79-3.46.64-4.54,1.43-1.08,3.46-.79,4.54.64l49.71,65.94c1.08,1.43.79,3.46-.64,4.54-.58.44-1.27.66-1.95.66Z"/>
  <path class="cls-3" d="m454.21,98.78c-.42,0-.85-.08-1.26-.25-1.65-.7-2.43-2.6-1.73-4.25l27.79-66c.7-1.65,2.59-2.43,4.25-1.73,1.65.69,2.42,2.6,1.73,4.25l-27.79,66c-.52,1.24-1.72,1.99-2.99,1.99Z"/>
  <path class="cls-3" d="m509.79,98.78c-1.26,0-2.47-.74-2.99-1.99l-27.79-66c-.69-1.65.08-3.55,1.73-4.25,1.65-.7,3.55.08,4.25,1.73l27.79,66c.7,1.65-.08,3.55-1.73,4.25-.41.17-.84.25-1.26.25Z"/>
  <g>
    <path class="cls-3" d="m285.55,143.47h-23.39c-1.89,0-3.41-1.53-3.41-3.41s1.53-3.42,3.41-3.42h23.39c1.89,0,3.41,1.53,3.41,3.42s-1.53,3.41-3.41,3.41Z"/>
    <path class="cls-3" d="m285.56,143.47c-1.88,0-3.41-1.53-3.41-3.41s1.53-3.41,3.41-3.41c6.2,0,11.24-5.04,11.24-11.23,0-1.89,1.53-3.41,3.41-3.41s3.41,1.53,3.41,3.41c0,9.96-8.1,18.06-18.06,18.06Z"/>
  </g>
  <g>
    <path class="cls-3" d="m274.34,143.47h-23.39c-1.88,0-3.41-1.53-3.41-3.41s1.53-3.42,3.41-3.42h23.39c1.89,0,3.42,1.53,3.42,3.42s-1.53,3.41-3.42,3.41Z"/>
    <path class="cls-3" d="m250.94,143.47c-9.96,0-18.06-8.1-18.06-18.06,0-1.89,1.53-3.41,3.41-3.41s3.42,1.53,3.42,3.41c0,6.19,5.04,11.23,11.24,11.23,1.89,0,3.41,1.53,3.41,3.41s-1.53,3.41-3.41,3.41Z"/>
  </g>
  <path class="cls-3" d="m268.25,100.6c-20.99,0-38.07-17.08-38.07-38.06s17.08-38.07,38.07-38.07,38.07,17.08,38.07,38.07-17.08,38.06-38.07,38.06Zm0-69.47c-17.32,0-31.41,14.09-31.41,31.41s14.09,31.41,31.41,31.41,31.41-14.09,31.41-31.41-14.09-31.41-31.41-31.41Z"/>
  <path class="cls-3" d="m314.8,27.1c0,3.26-2.64,5.91-5.91,5.91s-5.91-2.64-5.91-5.91,2.64-5.91,5.91-5.91,5.91,2.64,5.91,5.91Z"/>
  <g>
    <path class="cls-2" d="m610.4,46.32v-1.1c0-14.11,9.71-23.22,27.52-23.22,19.22,0,27.62,8.51,27.62,26.82v2.1h-16.21c0-10.21-3.1-14.91-11.31-14.91h-.9c-6.51,0-10.31,3.6-10.31,8.61v.5c0,5.7,2.3,8.71,13.71,10.21,17.01,2.3,25.62,8.11,25.62,22.62v1c0,15.01-9.91,23.72-28.22,23.72s-28.13-8.21-28.13-27.02v-.9h16.21c0,9.81,4,13.91,11.51,13.91h.9c7.51,0,11.21-4,11.21-9.21v-.5c0-5.6-2.9-8.71-14.21-10.21-17.01-2.3-25.02-8.31-25.02-22.42Z"/>
    <path class="cls-2" d="m674.65,76.65V23.3h16.21v52.85c0,8.31,2.6,12.51,11.81,12.51s11.91-4.2,11.91-12.51V23.3h16.21v53.35c0,17.02-6.91,26.02-28.12,26.02s-28.02-9.01-28.02-26.02Z"/>
    <path class="cls-2" d="m758.22,101.37h-16.21V23.3h16.21v78.07Z"/>
    <path class="cls-2" d="m800.16,101.37h-16.21V37.31h-18.02v-14.01h52.35v14.01h-18.12v64.06Z"/>
    <path class="cls-2" d="m873.32,23.3v14.01h-31.53v17.22h26.52v14.01h-26.52v18.82h31.53v14.01h-47.74V23.3h47.74Z"/>
  </g>
</svg>